<svg width="184" height="93" viewBox="0 0 184 93" fill="none" xmlns="http://www.w3.org/2000/svg">
<g clip-path="url(#clip0_25_708)">
<path d="M184 44.7934C183.852 47.9941 183.498 51.1817 182.941 54.3361C175.82 34.8042 164.951 26.7496 160.529 24.1453L160.271 23.9779L160.004 23.8291C159.68 23.6298 159.341 23.4556 158.991 23.3082L158.742 23.1873L158.567 23.1129C156.756 22.3799 154.789 22.1276 152.854 22.38C150.919 22.6323 149.08 23.381 147.513 24.5545L143.948 27.2425L109.866 52.9317L99.3278 62.8279L70.9655 90.7307C63.5963 97.6226 53.4636 87.0661 60.3631 79.7555C74.8528 65.8042 102.441 42.6728 117.696 29.4654C117.696 29.4654 136.496 13.5794 147.338 8.78946C160.428 3.78556 175.553 10.0079 180.361 23.3454C182.95 28.4981 184.046 37.7247 183.963 43.2308C183.972 43.7703 183.991 44.2818 184 44.7934Z" fill="url(#paint0_linear_25_708)"/>
<path d="M182.941 54.3361C182.264 58.2995 180.955 62.1255 179.063 65.6646C178.363 66.6877 177.736 67.5899 177.165 68.3991C174.492 72.5516 171.052 76.1453 167.032 78.9835C157.591 85.8383 143.69 87.9589 132.416 84.0433C122.823 81.496 113.939 76.7578 106.448 70.1942C103.751 68.0787 101.379 65.5712 99.4106 62.7534L109.967 52.8758C109.737 53.1362 109.543 54.3547 111.515 55.973C114.941 58.7633 126.253 65.7762 126.253 65.7762C134.12 70.4825 143.377 72.9937 150.783 70.0267C154.384 68.8072 157.692 66.8374 160.491 64.245C163.29 61.6526 165.519 58.4954 167.032 54.9778C168.765 50.9101 169.519 46.4854 169.23 42.0668C168.942 37.6482 167.621 33.3615 165.374 29.5584C164.057 27.7912 162.408 25.2614 160.52 24.1453C164.951 26.7495 175.82 34.8413 182.941 54.3361Z" fill="url(#paint1_linear_25_708)"/>
<path d="M161.413 39.4823L148.425 58.4655C147.386 59.201 146.161 59.6252 144.894 59.6894C143.626 59.7536 142.366 59.4551 141.259 58.8283L130.619 52.792C130.487 52.7117 130.385 52.5878 130.333 52.4411C130.28 52.2943 130.279 52.1337 130.33 51.9863C130.381 51.8389 130.48 51.7137 130.612 51.6317C130.743 51.5498 130.899 51.5161 131.052 51.5363L142.843 54.9219C144.109 55.2835 145.456 55.2215 146.684 54.7452L160.87 38.2732C161.02 38.24 161.177 38.26 161.315 38.3296C161.452 38.3993 161.562 38.5144 161.626 38.6559C161.689 38.7974 161.703 38.9566 161.664 39.107C161.626 39.2574 161.537 39.3899 161.413 39.4823Z" fill="#622BB5" stroke="#622BB5" stroke-miterlimit="10"/>
<path d="M0.0460997 44.9143C0.297552 41.7287 0.752942 38.5628 1.40941 35.4366C7.94958 55.1453 18.5981 63.5161 22.9551 66.2227C23.0343 66.2868 23.1173 66.3459 23.2039 66.3994L23.471 66.5575C23.7872 66.7675 24.12 66.951 24.4658 67.1063L24.7145 67.2365L24.8803 67.3109C26.6731 68.0993 28.6364 68.409 30.5818 68.2103C32.5273 68.0116 34.3894 67.3111 35.9894 66.1762L39.6096 63.5905L74.3278 38.8501L85.1421 29.2608C92.2534 22.6385 107.25 8.66853 114.241 2.12068C121.832 -4.56669 131.688 6.26891 124.549 13.3841C109.718 26.9356 81.5496 49.2671 65.89 62.0559C65.89 62.0559 46.6748 77.421 35.7039 81.9134C22.4854 86.5638 7.53506 79.9137 3.0859 66.4552C0.635639 61.2281 -0.211822 51.983 0.0184663 46.4768C0.0461008 45.9653 0.0368882 45.4537 0.0460997 44.9143Z" fill="url(#paint2_linear_25_708)"/>
<path d="M1.4093 35.4366C2.18677 31.4904 3.59619 27.6986 5.58212 24.2104C6.30061 23.2121 6.95464 22.3192 7.54417 21.5317C10.3376 17.4401 13.8839 13.9289 17.99 11.1891C27.6161 4.59472 41.5623 2.81826 52.7267 7.07808C62.2574 9.89204 71.0193 14.882 78.3347 21.6619C80.9699 23.8425 83.2729 26.4029 85.1696 29.2608L74.3553 38.8501C74.5856 38.5896 74.8066 37.3805 72.8814 35.7063C69.5377 32.7952 58.3825 25.4753 58.3825 25.4753C50.6449 20.5458 41.461 17.7834 33.972 20.5458C30.3386 21.6654 26.9791 23.5441 24.1114 26.0598C21.2438 28.5755 18.9322 31.672 17.3268 35.1483C15.464 39.171 14.5759 43.5836 14.7361 48.0214C14.8963 52.4593 16.1001 56.7949 18.2479 60.67C19.5099 62.4744 21.0943 65.0508 22.955 66.2506C18.598 63.5161 7.94948 55.1453 1.4093 35.4366Z" fill="url(#paint3_linear_25_708)"/>
<path d="M41.9259 45.6527C43.3617 40.7461 40.9897 35.7138 36.6279 34.4126C32.2662 33.1114 27.5665 36.0341 26.1307 40.9406C24.695 45.8472 27.067 50.8795 31.4287 52.1807C35.7905 53.4819 40.4902 50.5592 41.9259 45.6527Z" fill="#622BB5"/>
</g>
<defs>
<linearGradient id="paint0_linear_25_708" x1="58.0418" y1="50.0484" x2="184" y2="50.0484" gradientUnits="userSpaceOnUse">
<stop stop-color="#622BB5"/>
<stop offset="0.448759" stop-color="#8A3DFF"/>
<stop offset="1" stop-color="#24B8EB"/>
</linearGradient>
<linearGradient id="paint1_linear_25_708" x1="99.3277" y1="55.0988" x2="182.941" y2="55.0988" gradientUnits="userSpaceOnUse">
<stop offset="0.263759" stop-color="#24B8EB"/>
<stop offset="1" stop-color="#622BB5"/>
</linearGradient>
<linearGradient id="paint2_linear_25_708" x1="4.32847e-05" y1="41.6868" x2="127.045" y2="41.6868" gradientUnits="userSpaceOnUse">
<stop stop-color="#33E3DF"/>
<stop offset="0.5" stop-color="#8A3DFF"/>
<stop offset="1" stop-color="#7E38E8"/>
</linearGradient>
<linearGradient id="paint3_linear_25_708" x1="1.36324" y1="35.5017" x2="85.1696" y2="35.5017" gradientUnits="userSpaceOnUse">
<stop stop-color="#622BB5"/>
<stop offset="1" stop-color="#33E3DF"/>
</linearGradient>
<clipPath id="clip0_25_708">
<rect width="184" height="93" fill="white"/>
</clipPath>
</defs>
</svg>
