<svg width="582" height="93" viewBox="0 0 582 93" fill="none" xmlns="http://www.w3.org/2000/svg">
<g clip-path="url(#clip0_25_718)">
<path d="M184 44.7934C183.852 47.9941 183.498 51.1817 182.941 54.3361C175.82 34.8042 164.951 26.7496 160.529 24.1453L160.271 23.9779L160.004 23.8291C159.68 23.6298 159.341 23.4556 158.991 23.3082L158.742 23.1873L158.567 23.1129C156.756 22.3799 154.789 22.1276 152.854 22.38C150.919 22.6323 149.08 23.381 147.513 24.5545L143.948 27.2425L109.866 52.9317L99.3278 62.8279L70.9655 90.7307C63.5963 97.6226 53.4636 87.0661 60.3631 79.7555C74.8528 65.8042 102.441 42.6728 117.696 29.4654C117.696 29.4654 136.496 13.5794 147.338 8.78946C160.428 3.78556 175.553 10.0079 180.361 23.3454C182.95 28.4981 184.046 37.7247 183.963 43.2308C183.972 43.7703 183.991 44.2818 184 44.7934Z" fill="url(#paint0_linear_25_718)"/>
<path d="M182.941 54.3361C182.264 58.2995 180.955 62.1255 179.063 65.6646C178.363 66.6877 177.736 67.5899 177.165 68.3991C174.492 72.5516 171.052 76.1453 167.032 78.9835C157.591 85.8383 143.69 87.9589 132.416 84.0433C122.823 81.496 113.939 76.7578 106.448 70.1942C103.751 68.0787 101.379 65.5712 99.4106 62.7534L109.967 52.8758C109.737 53.1362 109.543 54.3547 111.515 55.973C114.941 58.7633 126.253 65.7762 126.253 65.7762C134.12 70.4825 143.377 72.9937 150.783 70.0267C154.384 68.8072 157.692 66.8374 160.491 64.245C163.29 61.6526 165.519 58.4954 167.032 54.9778C168.765 50.9101 169.519 46.4854 169.23 42.0668C168.942 37.6482 167.621 33.3615 165.374 29.5584C164.057 27.7912 162.408 25.2614 160.52 24.1453C164.951 26.7495 175.82 34.8413 182.941 54.3361Z" fill="url(#paint1_linear_25_718)"/>
<path d="M161.413 39.4823L148.425 58.4655C147.386 59.201 146.161 59.6252 144.894 59.6894C143.626 59.7536 142.366 59.4551 141.259 58.8283L130.619 52.792C130.487 52.7117 130.385 52.5878 130.333 52.4411C130.28 52.2943 130.279 52.1337 130.33 51.9863C130.381 51.8389 130.48 51.7137 130.612 51.6317C130.743 51.5498 130.899 51.5161 131.052 51.5363L142.843 54.9219C144.109 55.2835 145.456 55.2215 146.684 54.7452L160.87 38.2732C161.02 38.24 161.177 38.26 161.315 38.3296C161.452 38.3993 161.562 38.5144 161.626 38.6559C161.689 38.7974 161.703 38.9566 161.664 39.107C161.626 39.2574 161.537 39.3899 161.413 39.4823Z" fill="#622BB5" stroke="#622BB5" stroke-miterlimit="10"/>
<path d="M0.0460997 44.9143C0.297552 41.7287 0.752942 38.5628 1.40941 35.4366C7.94958 55.1453 18.5981 63.5161 22.9551 66.2227C23.0343 66.2868 23.1173 66.3459 23.2039 66.3994L23.471 66.5575C23.7872 66.7675 24.12 66.951 24.4658 67.1063L24.7145 67.2365L24.8803 67.3109C26.6731 68.0993 28.6364 68.409 30.5818 68.2103C32.5273 68.0116 34.3894 67.3111 35.9894 66.1762L39.6096 63.5905L74.3278 38.8501L85.1421 29.2608C92.2534 22.6385 107.25 8.66853 114.241 2.12068C121.832 -4.56669 131.688 6.26891 124.549 13.3841C109.718 26.9356 81.5496 49.2671 65.89 62.0559C65.89 62.0559 46.6748 77.421 35.7039 81.9134C22.4854 86.5638 7.53506 79.9137 3.0859 66.4552C0.635639 61.2281 -0.211822 51.983 0.0184663 46.4768C0.0461008 45.9653 0.0368882 45.4537 0.0460997 44.9143Z" fill="url(#paint2_linear_25_718)"/>
<path d="M1.4093 35.4366C2.18677 31.4904 3.59619 27.6986 5.58212 24.2104C6.30061 23.2121 6.95464 22.3192 7.54417 21.5317C10.3376 17.4401 13.8839 13.9289 17.99 11.1891C27.6161 4.59472 41.5623 2.81826 52.7267 7.07808C62.2574 9.89204 71.0193 14.882 78.3347 21.6619C80.9699 23.8425 83.2729 26.4029 85.1696 29.2608L74.3553 38.8501C74.5856 38.5896 74.8066 37.3805 72.8814 35.7063C69.5377 32.7952 58.3825 25.4753 58.3825 25.4753C50.6449 20.5458 41.461 17.7834 33.972 20.5458C30.3386 21.6654 26.9791 23.5441 24.1114 26.0598C21.2438 28.5755 18.9322 31.672 17.3268 35.1483C15.464 39.171 14.5759 43.5836 14.7361 48.0214C14.8963 52.4593 16.1001 56.7949 18.2479 60.67C19.5099 62.4744 21.0943 65.0508 22.955 66.2506C18.598 63.5161 7.94948 55.1453 1.4093 35.4366Z" fill="url(#paint3_linear_25_718)"/>
<path d="M41.9259 45.6527C43.3617 40.7461 40.9897 35.7138 36.6279 34.4126C32.2662 33.1114 27.5665 36.0341 26.1307 40.9406C24.695 45.8472 27.067 50.8795 31.4287 52.1807C35.7905 53.4819 40.4902 50.5592 41.9259 45.6527Z" fill="#622BB5"/>
</g>
<path d="M217.048 27.688V67H207.472V27.688H217.048ZM243.028 35.416C246.686 35.416 249.598 36.6107 251.764 39C253.966 41.352 255.068 44.6 255.068 48.744V67H245.548V50.032C245.548 47.9413 245.006 46.3173 243.924 45.16C242.841 44.0027 241.385 43.424 239.556 43.424C237.726 43.424 236.27 44.0027 235.188 45.16C234.105 46.3173 233.564 47.9413 233.564 50.032V67H223.988V35.752H233.564V39.896C234.534 38.5147 235.841 37.432 237.484 36.648C239.126 35.8267 240.974 35.416 243.028 35.416ZM277.402 43.704H272.25V67H262.674V43.704H259.202V35.752H262.674V34.856C262.674 31.0107 263.775 28.0987 265.978 26.12C268.181 24.104 271.41 23.096 275.666 23.096C276.375 23.096 276.898 23.1147 277.234 23.152V31.272C275.405 31.16 274.117 31.4213 273.37 32.056C272.623 32.6907 272.25 33.8293 272.25 35.472V35.752H277.402V43.704ZM286.718 32.504C285.038 32.504 283.656 32.0187 282.574 31.048C281.528 30.04 281.006 28.808 281.006 27.352C281.006 25.8587 281.528 24.6267 282.574 23.656C283.656 22.648 285.038 22.144 286.718 22.144C288.36 22.144 289.704 22.648 290.75 23.656C291.832 24.6267 292.374 25.8587 292.374 27.352C292.374 28.808 291.832 30.04 290.75 31.048C289.704 32.0187 288.36 32.504 286.718 32.504ZM291.478 35.752V67H281.902V35.752H291.478ZM317.457 35.416C321.116 35.416 324.028 36.6107 326.193 39C328.396 41.352 329.497 44.6 329.497 48.744V67H319.977V50.032C319.977 47.9413 319.436 46.3173 318.353 45.16C317.271 44.0027 315.815 43.424 313.985 43.424C312.156 43.424 310.7 44.0027 309.617 45.16C308.535 46.3173 307.993 47.9413 307.993 50.032V67H298.417V35.752H307.993V39.896C308.964 38.5147 310.271 37.432 311.913 36.648C313.556 35.8267 315.404 35.416 317.457 35.416ZM340.968 32.504C339.288 32.504 337.906 32.0187 336.824 31.048C335.778 30.04 335.256 28.808 335.256 27.352C335.256 25.8587 335.778 24.6267 336.824 23.656C337.906 22.648 339.288 22.144 340.968 22.144C342.61 22.144 343.954 22.648 345 23.656C346.082 24.6267 346.624 25.8587 346.624 27.352C346.624 28.808 346.082 30.04 345 31.048C343.954 32.0187 342.61 32.504 340.968 32.504ZM345.728 35.752V67H336.152V35.752H345.728ZM370.083 58.88V67H365.211C361.739 67 359.033 66.16 357.091 64.48C355.15 62.7627 354.179 59.9813 354.179 56.136V43.704H350.371V35.752H354.179V28.136H363.755V35.752H370.027V43.704H363.755V56.248C363.755 57.1813 363.979 57.8533 364.427 58.264C364.875 58.6747 365.622 58.88 366.667 58.88H370.083ZM404.873 50.872C404.873 51.768 404.817 52.7013 404.705 53.672H383.033C383.183 55.6133 383.799 57.1067 384.881 58.152C386.001 59.16 387.364 59.664 388.969 59.664C391.359 59.664 393.02 58.656 393.953 56.64H404.145C403.623 58.6933 402.671 60.5413 401.289 62.184C399.945 63.8267 398.247 65.1147 396.193 66.048C394.14 66.9813 391.844 67.448 389.305 67.448C386.244 67.448 383.519 66.7947 381.129 65.488C378.74 64.1813 376.873 62.3147 375.529 59.888C374.185 57.4613 373.513 54.624 373.513 51.376C373.513 48.128 374.167 45.2907 375.473 42.864C376.817 40.4373 378.684 38.5707 381.073 37.264C383.463 35.9573 386.207 35.304 389.305 35.304C392.329 35.304 395.017 35.9387 397.369 37.208C399.721 38.4773 401.551 40.288 402.857 42.64C404.201 44.992 404.873 47.736 404.873 50.872ZM395.073 48.352C395.073 46.7093 394.513 45.4027 393.393 44.432C392.273 43.4613 390.873 42.976 389.193 42.976C387.588 42.976 386.225 43.4427 385.105 44.376C384.023 45.3093 383.351 46.6347 383.089 48.352H395.073ZM450.072 27.688V35.36H439.656V67H430.08V35.36H419.664V27.688H450.072ZM464.454 40.96C465.574 39.2427 466.974 37.8987 468.654 36.928C470.334 35.92 472.201 35.416 474.254 35.416V45.552H471.622C469.233 45.552 467.441 46.0747 466.246 47.12C465.052 48.128 464.454 49.92 464.454 52.496V67H454.878V35.752H464.454V40.96ZM476.927 51.32C476.927 48.1093 477.525 45.2907 478.719 42.864C479.951 40.4373 481.613 38.5707 483.703 37.264C485.794 35.9573 488.127 35.304 490.703 35.304C492.906 35.304 494.829 35.752 496.471 36.648C498.151 37.544 499.439 38.72 500.335 40.176V35.752H509.911V67H500.335V62.576C499.402 64.032 498.095 65.208 496.415 66.104C494.773 67 492.85 67.448 490.647 67.448C488.109 67.448 485.794 66.7947 483.703 65.488C481.613 64.144 479.951 62.2587 478.719 59.832C477.525 57.368 476.927 54.5307 476.927 51.32ZM500.335 51.376C500.335 48.9867 499.663 47.1013 498.319 45.72C497.013 44.3387 495.407 43.648 493.503 43.648C491.599 43.648 489.975 44.3387 488.631 45.72C487.325 47.064 486.671 48.9307 486.671 51.32C486.671 53.7093 487.325 55.6133 488.631 57.032C489.975 58.4133 491.599 59.104 493.503 59.104C495.407 59.104 497.013 58.4133 498.319 57.032C499.663 55.6507 500.335 53.7653 500.335 51.376ZM514.935 51.376C514.935 48.128 515.589 45.2907 516.895 42.864C518.239 40.4373 520.087 38.5707 522.439 37.264C524.829 35.9573 527.554 35.304 530.615 35.304C534.535 35.304 537.802 36.3307 540.415 38.384C543.066 40.4373 544.802 43.3307 545.623 47.064H535.431C534.573 44.6747 532.911 43.48 530.447 43.48C528.693 43.48 527.293 44.1707 526.247 45.552C525.202 46.896 524.679 48.8373 524.679 51.376C524.679 53.9147 525.202 55.8747 526.247 57.256C527.293 58.6 528.693 59.272 530.447 59.272C532.911 59.272 534.573 58.0773 535.431 55.688H545.623C544.802 59.3467 543.066 62.2213 540.415 64.312C537.765 66.4027 534.498 67.448 530.615 67.448C527.554 67.448 524.829 66.7947 522.439 65.488C520.087 64.1813 518.239 62.3147 516.895 59.888C515.589 57.4613 514.935 54.624 514.935 51.376ZM569.841 67L560.321 53.896V67H550.745V25.56H560.321V48.464L569.785 35.752H581.601L568.609 51.432L581.713 67H569.841Z" fill="black"/>
<defs>
<linearGradient id="paint0_linear_25_718" x1="58.0418" y1="50.0484" x2="184" y2="50.0484" gradientUnits="userSpaceOnUse">
<stop stop-color="#622BB5"/>
<stop offset="0.448759" stop-color="#8A3DFF"/>
<stop offset="1" stop-color="#24B8EB"/>
</linearGradient>
<linearGradient id="paint1_linear_25_718" x1="99.3277" y1="55.0988" x2="182.941" y2="55.0988" gradientUnits="userSpaceOnUse">
<stop offset="0.263759" stop-color="#24B8EB"/>
<stop offset="1" stop-color="#622BB5"/>
</linearGradient>
<linearGradient id="paint2_linear_25_718" x1="4.32847e-05" y1="41.6868" x2="127.045" y2="41.6868" gradientUnits="userSpaceOnUse">
<stop stop-color="#33E3DF"/>
<stop offset="0.5" stop-color="#8A3DFF"/>
<stop offset="1" stop-color="#7E38E8"/>
</linearGradient>
<linearGradient id="paint3_linear_25_718" x1="1.36324" y1="35.5017" x2="85.1696" y2="35.5017" gradientUnits="userSpaceOnUse">
<stop stop-color="#622BB5"/>
<stop offset="1" stop-color="#33E3DF"/>
</linearGradient>
<clipPath id="clip0_25_718">
<rect width="184" height="93" fill="white"/>
</clipPath>
</defs>
</svg>
